<mxfile host="app.diagrams.net" modified="2023-08-03T12:07:00.344Z" agent="Mozilla/5.0 (Windows NT 10.0; Win64; x64; rv:109.0) Gecko/20100101 Firefox/115.0" etag="4MNt2lVBY23-zoTVZND_" version="21.3.8" type="device">
  <diagram id="C5RBs43oDa-KdzZeNtuy" name="Page-1">
    <mxGraphModel dx="1750" dy="897" grid="1" gridSize="10" guides="1" tooltips="1" connect="1" arrows="1" fold="1" page="1" pageScale="1" pageWidth="827" pageHeight="1169" math="0" shadow="0">
      <root>
        <mxCell id="WIyWlLk6GJQsqaUBKTNV-0" />
        <mxCell id="WIyWlLk6GJQsqaUBKTNV-1" parent="WIyWlLk6GJQsqaUBKTNV-0" />
        <mxCell id="BoGp_Ut8SjF_vv2t9EV7-5" style="edgeStyle=orthogonalEdgeStyle;rounded=0;orthogonalLoop=1;jettySize=auto;html=1;exitX=0.5;exitY=1;exitDx=0;exitDy=0;exitPerimeter=0;entryX=0.5;entryY=0;entryDx=0;entryDy=0;" edge="1" parent="WIyWlLk6GJQsqaUBKTNV-1" source="BoGp_Ut8SjF_vv2t9EV7-0">
          <mxGeometry relative="1" as="geometry">
            <mxPoint x="240" y="120" as="targetPoint" />
          </mxGeometry>
        </mxCell>
        <mxCell id="BoGp_Ut8SjF_vv2t9EV7-0" value="Начало" style="strokeWidth=1;html=1;shape=mxgraph.flowchart.terminator;whiteSpace=wrap;" vertex="1" parent="WIyWlLk6GJQsqaUBKTNV-1">
          <mxGeometry x="193" y="40" width="94" height="40" as="geometry" />
        </mxCell>
        <mxCell id="BoGp_Ut8SjF_vv2t9EV7-20" style="edgeStyle=orthogonalEdgeStyle;rounded=0;orthogonalLoop=1;jettySize=auto;html=1;exitX=0.5;exitY=1;exitDx=0;exitDy=0;entryX=0.5;entryY=0;entryDx=0;entryDy=0;" edge="1" parent="WIyWlLk6GJQsqaUBKTNV-1" source="BoGp_Ut8SjF_vv2t9EV7-18" target="BoGp_Ut8SjF_vv2t9EV7-19">
          <mxGeometry relative="1" as="geometry" />
        </mxCell>
        <mxCell id="BoGp_Ut8SjF_vv2t9EV7-18" value="Цикл по всем пикселям рассматриваемых объектов" style="shape=loopLimit;whiteSpace=wrap;html=1;" vertex="1" parent="WIyWlLk6GJQsqaUBKTNV-1">
          <mxGeometry x="185" y="120" width="110" height="80" as="geometry" />
        </mxCell>
        <mxCell id="BoGp_Ut8SjF_vv2t9EV7-22" style="edgeStyle=orthogonalEdgeStyle;rounded=0;orthogonalLoop=1;jettySize=auto;html=1;exitX=0.5;exitY=1;exitDx=0;exitDy=0;entryX=0.5;entryY=0;entryDx=0;entryDy=0;" edge="1" parent="WIyWlLk6GJQsqaUBKTNV-1" source="BoGp_Ut8SjF_vv2t9EV7-19" target="BoGp_Ut8SjF_vv2t9EV7-21">
          <mxGeometry relative="1" as="geometry" />
        </mxCell>
        <mxCell id="BoGp_Ut8SjF_vv2t9EV7-19" value="Создать луч" style="rounded=0;whiteSpace=wrap;html=1;" vertex="1" parent="WIyWlLk6GJQsqaUBKTNV-1">
          <mxGeometry x="190" y="230" width="100" height="50" as="geometry" />
        </mxCell>
        <mxCell id="BoGp_Ut8SjF_vv2t9EV7-24" style="edgeStyle=orthogonalEdgeStyle;rounded=0;orthogonalLoop=1;jettySize=auto;html=1;exitX=0;exitY=0.5;exitDx=0;exitDy=0;" edge="1" parent="WIyWlLk6GJQsqaUBKTNV-1" source="BoGp_Ut8SjF_vv2t9EV7-21" target="BoGp_Ut8SjF_vv2t9EV7-23">
          <mxGeometry relative="1" as="geometry" />
        </mxCell>
        <mxCell id="BoGp_Ut8SjF_vv2t9EV7-25" value="Нет" style="edgeLabel;html=1;align=center;verticalAlign=middle;resizable=0;points=[];" vertex="1" connectable="0" parent="BoGp_Ut8SjF_vv2t9EV7-24">
          <mxGeometry x="-0.1884" y="2" relative="1" as="geometry">
            <mxPoint x="7" y="-12" as="offset" />
          </mxGeometry>
        </mxCell>
        <mxCell id="BoGp_Ut8SjF_vv2t9EV7-28" style="edgeStyle=orthogonalEdgeStyle;rounded=0;orthogonalLoop=1;jettySize=auto;html=1;exitX=1;exitY=0.5;exitDx=0;exitDy=0;entryX=0.5;entryY=0;entryDx=0;entryDy=0;entryPerimeter=0;" edge="1" parent="WIyWlLk6GJQsqaUBKTNV-1" source="BoGp_Ut8SjF_vv2t9EV7-21" target="BoGp_Ut8SjF_vv2t9EV7-67">
          <mxGeometry relative="1" as="geometry">
            <mxPoint x="420" y="370" as="targetPoint" />
          </mxGeometry>
        </mxCell>
        <mxCell id="BoGp_Ut8SjF_vv2t9EV7-29" value="&lt;div&gt;Да&lt;/div&gt;" style="edgeLabel;html=1;align=center;verticalAlign=middle;resizable=0;points=[];" vertex="1" connectable="0" parent="BoGp_Ut8SjF_vv2t9EV7-28">
          <mxGeometry x="-0.0549" y="2" relative="1" as="geometry">
            <mxPoint x="-21" y="-8" as="offset" />
          </mxGeometry>
        </mxCell>
        <mxCell id="BoGp_Ut8SjF_vv2t9EV7-21" value="Луч пересек объем содержащий облако?" style="rhombus;whiteSpace=wrap;html=1;" vertex="1" parent="WIyWlLk6GJQsqaUBKTNV-1">
          <mxGeometry x="162.5" y="310" width="155" height="100" as="geometry" />
        </mxCell>
        <mxCell id="BoGp_Ut8SjF_vv2t9EV7-64" style="edgeStyle=orthogonalEdgeStyle;rounded=0;orthogonalLoop=1;jettySize=auto;html=1;exitX=0.5;exitY=1;exitDx=0;exitDy=0;entryX=0.5;entryY=0;entryDx=0;entryDy=0;" edge="1" parent="WIyWlLk6GJQsqaUBKTNV-1" source="BoGp_Ut8SjF_vv2t9EV7-23" target="BoGp_Ut8SjF_vv2t9EV7-57">
          <mxGeometry relative="1" as="geometry" />
        </mxCell>
        <mxCell id="BoGp_Ut8SjF_vv2t9EV7-23" value="цвет = цвет фона" style="rounded=0;whiteSpace=wrap;html=1;" vertex="1" parent="WIyWlLk6GJQsqaUBKTNV-1">
          <mxGeometry x="40" y="420" width="107" height="60" as="geometry" />
        </mxCell>
        <mxCell id="BoGp_Ut8SjF_vv2t9EV7-36" style="edgeStyle=orthogonalEdgeStyle;rounded=0;orthogonalLoop=1;jettySize=auto;html=1;exitX=0.5;exitY=1;exitDx=0;exitDy=0;entryX=0.5;entryY=0;entryDx=0;entryDy=0;" edge="1" parent="WIyWlLk6GJQsqaUBKTNV-1" source="BoGp_Ut8SjF_vv2t9EV7-34" target="BoGp_Ut8SjF_vv2t9EV7-35">
          <mxGeometry relative="1" as="geometry" />
        </mxCell>
        <mxCell id="BoGp_Ut8SjF_vv2t9EV7-34" value="Рассчитать длину пути луча в облаке distance" style="rounded=0;whiteSpace=wrap;html=1;" vertex="1" parent="WIyWlLk6GJQsqaUBKTNV-1">
          <mxGeometry x="532.25" y="160" width="107" height="60" as="geometry" />
        </mxCell>
        <mxCell id="BoGp_Ut8SjF_vv2t9EV7-38" style="edgeStyle=orthogonalEdgeStyle;rounded=0;orthogonalLoop=1;jettySize=auto;html=1;exitX=0.5;exitY=1;exitDx=0;exitDy=0;entryX=0.5;entryY=0;entryDx=0;entryDy=0;" edge="1" parent="WIyWlLk6GJQsqaUBKTNV-1" source="BoGp_Ut8SjF_vv2t9EV7-35" target="BoGp_Ut8SjF_vv2t9EV7-37">
          <mxGeometry relative="1" as="geometry" />
        </mxCell>
        <mxCell id="BoGp_Ut8SjF_vv2t9EV7-35" value="step = distance / N" style="rounded=0;whiteSpace=wrap;html=1;" vertex="1" parent="WIyWlLk6GJQsqaUBKTNV-1">
          <mxGeometry x="532.25" y="260" width="107" height="60" as="geometry" />
        </mxCell>
        <mxCell id="BoGp_Ut8SjF_vv2t9EV7-41" style="edgeStyle=orthogonalEdgeStyle;rounded=0;orthogonalLoop=1;jettySize=auto;html=1;exitX=0.5;exitY=1;exitDx=0;exitDy=0;entryX=0.5;entryY=0;entryDx=0;entryDy=0;" edge="1" parent="WIyWlLk6GJQsqaUBKTNV-1" source="BoGp_Ut8SjF_vv2t9EV7-37" target="BoGp_Ut8SjF_vv2t9EV7-40">
          <mxGeometry relative="1" as="geometry" />
        </mxCell>
        <mxCell id="BoGp_Ut8SjF_vv2t9EV7-37" value="Цикл по P от точки входа луча в объем до точки выхода с шагом step" style="shape=loopLimit;whiteSpace=wrap;html=1;" vertex="1" parent="WIyWlLk6GJQsqaUBKTNV-1">
          <mxGeometry x="514" y="350" width="143.5" height="90" as="geometry" />
        </mxCell>
        <mxCell id="BoGp_Ut8SjF_vv2t9EV7-44" style="edgeStyle=orthogonalEdgeStyle;rounded=0;orthogonalLoop=1;jettySize=auto;html=1;exitX=0.5;exitY=1;exitDx=0;exitDy=0;entryX=0.5;entryY=0;entryDx=0;entryDy=0;" edge="1" parent="WIyWlLk6GJQsqaUBKTNV-1" source="BoGp_Ut8SjF_vv2t9EV7-40" target="BoGp_Ut8SjF_vv2t9EV7-43">
          <mxGeometry relative="1" as="geometry" />
        </mxCell>
        <mxCell id="BoGp_Ut8SjF_vv2t9EV7-40" value="Вычислить плотность в точке P" style="rounded=0;whiteSpace=wrap;html=1;" vertex="1" parent="WIyWlLk6GJQsqaUBKTNV-1">
          <mxGeometry x="532.25" y="470" width="107" height="60" as="geometry" />
        </mxCell>
        <mxCell id="BoGp_Ut8SjF_vv2t9EV7-47" style="edgeStyle=orthogonalEdgeStyle;rounded=0;orthogonalLoop=1;jettySize=auto;html=1;exitX=0.5;exitY=1;exitDx=0;exitDy=0;entryX=0.5;entryY=0;entryDx=0;entryDy=0;" edge="1" parent="WIyWlLk6GJQsqaUBKTNV-1" source="BoGp_Ut8SjF_vv2t9EV7-43" target="BoGp_Ut8SjF_vv2t9EV7-46">
          <mxGeometry relative="1" as="geometry" />
        </mxCell>
        <mxCell id="BoGp_Ut8SjF_vv2t9EV7-43" value="Вычислить освещенность в точке P" style="rounded=0;whiteSpace=wrap;html=1;" vertex="1" parent="WIyWlLk6GJQsqaUBKTNV-1">
          <mxGeometry x="532.25" y="570" width="107" height="60" as="geometry" />
        </mxCell>
        <mxCell id="BoGp_Ut8SjF_vv2t9EV7-56" style="edgeStyle=orthogonalEdgeStyle;rounded=0;orthogonalLoop=1;jettySize=auto;html=1;exitX=0.5;exitY=1;exitDx=0;exitDy=0;entryX=0.5;entryY=0;entryDx=0;entryDy=0;" edge="1" parent="WIyWlLk6GJQsqaUBKTNV-1" source="BoGp_Ut8SjF_vv2t9EV7-46" target="BoGp_Ut8SjF_vv2t9EV7-55">
          <mxGeometry relative="1" as="geometry">
            <mxPoint x="585.75" y="760" as="targetPoint" />
          </mxGeometry>
        </mxCell>
        <mxCell id="BoGp_Ut8SjF_vv2t9EV7-46" value="Обновить значение цвета" style="rounded=0;whiteSpace=wrap;html=1;" vertex="1" parent="WIyWlLk6GJQsqaUBKTNV-1">
          <mxGeometry x="532.25" y="660" width="107" height="60" as="geometry" />
        </mxCell>
        <mxCell id="BoGp_Ut8SjF_vv2t9EV7-55" value="Конец цикла по P" style="shape=loopLimit;whiteSpace=wrap;html=1;flipV=1;" vertex="1" parent="WIyWlLk6GJQsqaUBKTNV-1">
          <mxGeometry x="525.75" y="760" width="120" height="50" as="geometry" />
        </mxCell>
        <mxCell id="BoGp_Ut8SjF_vv2t9EV7-61" style="edgeStyle=orthogonalEdgeStyle;rounded=0;orthogonalLoop=1;jettySize=auto;html=1;exitX=0.5;exitY=1;exitDx=0;exitDy=0;entryX=0.5;entryY=0;entryDx=0;entryDy=0;" edge="1" parent="WIyWlLk6GJQsqaUBKTNV-1" source="BoGp_Ut8SjF_vv2t9EV7-57" target="BoGp_Ut8SjF_vv2t9EV7-60">
          <mxGeometry relative="1" as="geometry" />
        </mxCell>
        <mxCell id="BoGp_Ut8SjF_vv2t9EV7-57" value="Закрасить пиксель" style="rounded=0;whiteSpace=wrap;html=1;" vertex="1" parent="WIyWlLk6GJQsqaUBKTNV-1">
          <mxGeometry x="180" y="640" width="120" height="60" as="geometry" />
        </mxCell>
        <mxCell id="BoGp_Ut8SjF_vv2t9EV7-63" style="edgeStyle=orthogonalEdgeStyle;rounded=0;orthogonalLoop=1;jettySize=auto;html=1;exitX=0.5;exitY=1;exitDx=0;exitDy=0;entryX=0.5;entryY=0;entryDx=0;entryDy=0;entryPerimeter=0;" edge="1" parent="WIyWlLk6GJQsqaUBKTNV-1" source="BoGp_Ut8SjF_vv2t9EV7-60" target="BoGp_Ut8SjF_vv2t9EV7-62">
          <mxGeometry relative="1" as="geometry" />
        </mxCell>
        <mxCell id="BoGp_Ut8SjF_vv2t9EV7-60" value="Конец цикла по пикселям" style="shape=loopLimit;whiteSpace=wrap;html=1;flipV=1;" vertex="1" parent="WIyWlLk6GJQsqaUBKTNV-1">
          <mxGeometry x="180" y="760" width="120" height="50" as="geometry" />
        </mxCell>
        <mxCell id="BoGp_Ut8SjF_vv2t9EV7-62" value="Конец" style="strokeWidth=1;html=1;shape=mxgraph.flowchart.terminator;whiteSpace=wrap;" vertex="1" parent="WIyWlLk6GJQsqaUBKTNV-1">
          <mxGeometry x="193" y="850" width="94" height="40" as="geometry" />
        </mxCell>
        <mxCell id="BoGp_Ut8SjF_vv2t9EV7-68" style="edgeStyle=orthogonalEdgeStyle;rounded=0;orthogonalLoop=1;jettySize=auto;html=1;exitX=0.5;exitY=1;exitDx=0;exitDy=0;exitPerimeter=0;entryX=0.5;entryY=0;entryDx=0;entryDy=0;" edge="1" parent="WIyWlLk6GJQsqaUBKTNV-1" source="BoGp_Ut8SjF_vv2t9EV7-67" target="BoGp_Ut8SjF_vv2t9EV7-57">
          <mxGeometry relative="1" as="geometry">
            <Array as="points">
              <mxPoint x="415" y="560" />
              <mxPoint x="240" y="560" />
            </Array>
          </mxGeometry>
        </mxCell>
        <mxCell id="BoGp_Ut8SjF_vv2t9EV7-67" value="А" style="strokeWidth=1;html=1;shape=mxgraph.flowchart.start_2;whiteSpace=wrap;" vertex="1" parent="WIyWlLk6GJQsqaUBKTNV-1">
          <mxGeometry x="390" y="425" width="50" height="50" as="geometry" />
        </mxCell>
        <mxCell id="BoGp_Ut8SjF_vv2t9EV7-70" style="edgeStyle=orthogonalEdgeStyle;rounded=0;orthogonalLoop=1;jettySize=auto;html=1;exitX=0.5;exitY=1;exitDx=0;exitDy=0;exitPerimeter=0;entryX=0.5;entryY=0;entryDx=0;entryDy=0;" edge="1" parent="WIyWlLk6GJQsqaUBKTNV-1" source="BoGp_Ut8SjF_vv2t9EV7-69" target="BoGp_Ut8SjF_vv2t9EV7-34">
          <mxGeometry relative="1" as="geometry" />
        </mxCell>
        <mxCell id="BoGp_Ut8SjF_vv2t9EV7-69" value="А" style="strokeWidth=1;html=1;shape=mxgraph.flowchart.start_2;whiteSpace=wrap;" vertex="1" parent="WIyWlLk6GJQsqaUBKTNV-1">
          <mxGeometry x="560.75" y="70" width="50" height="50" as="geometry" />
        </mxCell>
      </root>
    </mxGraphModel>
  </diagram>
</mxfile>
